<svg width="20" height="36" viewBox="0 0 20 36" fill="none" xmlns="http://www.w3.org/2000/svg">
<path d="M9.5 21.6H3.12986C1.72143 21.6 1.01721 21.6 0.72228 21.1385C0.427353 20.6769 0.723212 20.0379 1.31493 18.7597L9.04627 2.06006C9.42045 1.25182 9.60755 0.847696 9.80377 0.890915C10 0.934134 10 1.37946 10 2.27013V13.9C10 14.1357 10 14.2536 10.0732 14.3268C10.1464 14.4 10.2643 14.4 10.5 14.4H16.8701C18.2786 14.4 18.9828 14.4 19.2777 14.8615C19.5726 15.3231 19.2768 15.9621 18.6851 17.2402L10.9537 33.9399C10.5795 34.7482 10.3925 35.1523 10.1962 35.1091C10 35.0659 10 34.6205 10 33.7299V22.1C10 21.8643 10 21.7464 9.92678 21.6732C9.85355 21.6 9.7357 21.6 9.5 21.6Z" fill="#CA3604"/>
</svg>
