<svg width="36" height="36" viewBox="0 0 36 36" fill="none" xmlns="http://www.w3.org/2000/svg">
<g clip-path="url(#clip0_29_1080)">
<path d="M18 36C27.9411 36 36 27.9411 36 18C36 8.05887 27.9411 0 18 0C8.05887 0 0 8.05887 0 18C0 27.9411 8.05887 36 18 36Z" fill="url(#paint0_linear_29_1080)"/>
<path d="M21.8241 8H14.1841C10.7761 8 8.00806 10.768 8.00806 14.176V21.816C8.00806 25.224 10.7761 27.992 14.1841 27.992H21.8241C25.2321 27.992 28.0001 25.224 28.0001 21.816V14.176C28.0001 10.768 25.2321 8 21.8241 8ZM25.7681 21.824C25.7681 24 24.0001 25.776 21.8161 25.776H14.1761C12.0001 25.776 10.2241 24.008 10.2241 21.824V14.184C10.2241 12.008 11.9921 10.232 14.1761 10.232H21.8161C23.9921 10.232 25.7681 12 25.7681 14.184V21.824Z" fill="white"/>
<path d="M17.9999 12.8882C15.1839 12.8882 12.8879 15.1842 12.8879 18.0002C12.8879 20.8162 15.1839 23.1122 17.9999 23.1122C20.8159 23.1122 23.1119 20.8162 23.1119 18.0002C23.1119 15.1842 20.8159 12.8882 17.9999 12.8882ZM17.9999 21.1042C16.2879 21.1042 14.8959 19.7122 14.8959 18.0002C14.8959 16.2882 16.2879 14.8962 17.9999 14.8962C19.7119 14.8962 21.1039 16.2882 21.1039 18.0002C21.1039 19.7122 19.7119 21.1042 17.9999 21.1042Z" fill="white"/>
<path d="M23.5013 13.4486C23.9723 13.3723 24.2922 12.9286 24.2158 12.4576C24.1395 11.9867 23.6958 11.6668 23.2248 11.7431C22.7539 11.8195 22.434 12.2631 22.5103 12.7341C22.5867 13.2051 23.0303 13.525 23.5013 13.4486Z" fill="white"/>
</g>
<defs>
<linearGradient id="paint0_linear_29_1080" x1="4.29432" y1="31.7057" x2="29.8743" y2="6.12568" gradientUnits="userSpaceOnUse">
<stop stop-color="#FEE411"/>
<stop offset="0.0518459" stop-color="#FEDB16"/>
<stop offset="0.1381" stop-color="#FEC125"/>
<stop offset="0.2481" stop-color="#FE983D"/>
<stop offset="0.3762" stop-color="#FE5F5E"/>
<stop offset="0.5" stop-color="#FE2181"/>
<stop offset="1" stop-color="#9000DC"/>
</linearGradient>
<clipPath id="clip0_29_1080">
<rect width="36" height="36" fill="white"/>
</clipPath>
</defs>
</svg>
